<?xml version="1.0" encoding="utf-8"?>
<!-- Generator: Adobe Illustrator 19.0.0, SVG Export Plug-In . SVG Version: 6.00 Build 0)  -->
<svg version="1.1" id="图层_1" xmlns="http://www.w3.org/2000/svg" xmlns:xlink="http://www.w3.org/1999/xlink" x="0px" y="0px"
	 viewBox="0 0 64 64" style="enable-background:new 0 0 64 64;" xml:space="preserve">
<style type="text/css">
	.st0{fill:#FFFFFF;}
	.st1{fill:#2D8CEF;}
	.st2{fill:#2DF5BE;}
</style>
<path class="st0" d="M53,0H11C4.9,0,0,4.9,0,11v53h53c6.1,0,11-4.9,11-11V11C64,4.9,59.1,0,53,0z"/>
<path class="st1" d="M24.4,15.1c-1,0-1.9,0.8-1.9,1.9v4.5c0,1,0.8,1.9,1.9,1.9h4.3v28.4h8.2c0,0,0,0,0,0V23.3h12.3
	c1,0,1.9-0.8,1.9-1.9v-6.4H24.4z"/>
<path class="st2" d="M18.1,23.3h-4.5c-1,0-1.9-0.8-1.9-1.9v-6.3h6.3c1,0,1.9,0.8,1.9,1.9v4.5C20,22.5,19.1,23.3,18.1,23.3z"/>
</svg>
